<svg xmlns="http://www.w3.org/2000/svg" xmlns:xlink="http://www.w3.org/1999/xlink" width="8" height="16" viewBox="0 0 8 16"><defs><path id="bb6ja" d="M1475.22 3850.62l6.06 7.12c.14.17.32.26.52.26s.39-.1.53-.26l.45-.52a.99.99 0 0 0 0-1.24l-5.1-5.98 5.1-5.98a.95.95 0 0 0 .22-.62.95.95 0 0 0-.22-.62l-.44-.52a.69.69 0 0 0-.53-.26c-.2 0-.39.1-.53.26l-6.06 7.12a.95.95 0 0 0-.22.62c0 .24.08.46.22.62z"/></defs><g><g transform="translate(-1475 -3842)"><g><g><use xlink:href="#bb6ja"/></g></g></g></g></svg>