<svg xmlns="http://www.w3.org/2000/svg" xmlns:xlink="http://www.w3.org/1999/xlink" width="40" height="40" viewBox="0 0 40 40"><defs><path id="8hrda" d="M1496 2743h-29l-11-20 11-20h29z"/><path id="8hrdb" d="M1474.22 2723.62l6.06 7.12c.14.17.32.26.52.26s.39-.1.53-.26l.45-.52a.99.99 0 0 0 0-1.24l-5.1-5.98 5.1-5.98a.95.95 0 0 0 .22-.62.95.95 0 0 0-.22-.62l-.44-.52a.69.69 0 0 0-.53-.26c-.2 0-.39.1-.53.26l-6.06 7.12a.95.95 0 0 0-.22.62c0 .24.08.46.22.62z"/></defs><g><g transform="translate(-1456 -2703)"><use fill="#42444b" xlink:href="#8hrda"/></g><g transform="translate(-1456 -2703)"><use fill="#fff" xlink:href="#8hrdb"/></g></g></svg>