<svg xmlns="http://www.w3.org/2000/svg" xmlns:xlink="http://www.w3.org/1999/xlink" width="40" height="40" viewBox="0 0 40 40"><defs><path id="mkyqa" d="M1504 2703h29l11 20-11 20h-29z"/><path id="mkyqb" d="M1525.78 2722.38l-6.06-7.12a.69.69 0 0 0-.52-.26c-.2 0-.39.1-.53.26l-.45.52a.99.99 0 0 0 0 1.24l5.1 5.98-5.1 5.98a.95.95 0 0 0-.22.62c0 .24.08.46.22.62l.44.52c.14.17.33.26.53.26s.39-.1.53-.26l6.06-7.12a.95.95 0 0 0 .22-.62.95.95 0 0 0-.22-.62z"/></defs><g><g transform="translate(-1504 -2703)"><use fill="#42444b" xlink:href="#mkyqa"/></g><g transform="translate(-1504 -2703)"><use fill="#fff" xlink:href="#mkyqb"/></g></g></svg>