<svg xmlns="http://www.w3.org/2000/svg" xmlns:xlink="http://www.w3.org/1999/xlink" width="60" height="60" viewBox="0 0 60 60"><defs><path id="u2qea" d="M533.52 945.45v-17.7h7.45a5.28 5.28 0 0 0 9.94 0h18.3a5.28 5.28 0 0 0 9.94 0h7.34v17.7zm52.97 5.28c0 .97-.8 1.75-1.76 1.75h-49.46c-.96 0-1.75-.78-1.75-1.75v-1.76h52.97zm-38.8-26.49V926a1.76 1.76 0 0 1-3.5 0v-1.76zm28.25 0V926a1.76 1.76 0 0 1-3.52 0v-1.76zm-39.63-9.21c.2-.79.9-1.33 1.71-1.33h43.96c.81 0 1.51.54 1.7 1.33l2.31 9.21h-6.54v-1.76c0-.97-.78-1.75-1.75-1.75h-7.03c-.98 0-1.76.78-1.76 1.75v1.76h-17.7v-1.76c0-.97-.78-1.75-1.76-1.75h-7.03c-.97 0-1.75.78-1.75 1.75v1.76H534zm29.08-8.48v3.63h-10.66v-3.63zm-17.7-1.76c0-2.9 2.37-5.27 5.28-5.27h14.18c2.9 0 5.27 2.36 5.27 5.27v5.39h-3.51v-5.4c0-.96-.79-1.75-1.76-1.75h-14.18c-.97 0-1.76.79-1.76 1.76v5.39h-3.51v-5.4zM590 925.95c0-.34.14.45-2.9-11.78-.59-2.35-2.7-3.99-5.12-3.99h-6.04v-5.4a8.8 8.8 0 0 0-8.79-8.78h-14.18a8.8 8.8 0 0 0-8.79 8.79v5.39h-6.16a5.27 5.27 0 0 0-5.12 4c-2.9 11.76-2.91 11.37-2.9 11.86v24.69c0 2.9 2.37 5.27 5.27 5.27h49.46c2.9 0 5.27-2.37 5.27-5.27V926v-.06z"/></defs><g><g transform="translate(-530 -896)"><use xlink:href="#u2qea"/></g></g></svg>