<svg xmlns="http://www.w3.org/2000/svg" xmlns:xlink="http://www.w3.org/1999/xlink" width="70" height="70" viewBox="0 0 70 70"><defs><path id="qxela" d="M1390.88 1925v2h-3.63v-2zm0 12.4v2h-3.63v-2zm-7.75 8.59a3.15 3.15 0 0 1-3.14 3.14H1340a3.15 3.15 0 0 1-3.14-3.14V1906a3.15 3.15 0 0 1 3.14-3.14H1380a3.15 3.15 0 0 1 3.14 3.14zm-9.72 10.89h-2v-3.63h2zm-12.41 0h-2v-3.63h2zm-12.4 0h-2v-3.63h2zm-19.48-17.47v-2h3.63v2zm0-12.41v-2h3.63v2zm0-12.4v-2h3.63v2zm17.47-19.48h2v3.63h-2zm12.41 0h2v3.63h-2zm12.4 0h2v3.63h-2zm19.48 17.47v2h-3.63v-2zm2.06 6.13c1.14 0 2.06-.93 2.06-2.07v-6.12c0-1.14-.92-2.06-2.06-2.06h-5.69v-2.46c0-4-3.26-7.26-7.26-7.26h-2.46v-5.69c0-1.14-.92-2.06-2.06-2.06h-6.12c-1.14 0-2.07.92-2.07 2.06v5.69h-2.16v-5.69c0-1.14-.92-2.06-2.06-2.06h-6.12c-1.14 0-2.06.92-2.06 2.06v5.69h-2.16v-5.69c0-1.14-.93-2.06-2.07-2.06h-6.12c-1.14 0-2.06.92-2.06 2.06v5.69h-2.46c-4 0-7.26 3.26-7.26 7.26v2.46h-5.69c-1.14 0-2.06.92-2.06 2.06v6.12c0 1.14.92 2.07 2.06 2.07h5.69v2.16h-5.69c-1.14 0-2.06.92-2.06 2.06v6.12c0 1.14.92 2.06 2.06 2.06h5.69v2.16h-5.69c-1.14 0-2.06.93-2.06 2.06v6.13c0 1.14.92 2.06 2.06 2.06h5.69v2.46c0 4 3.26 7.26 7.26 7.26h2.46v5.69c0 1.14.92 2.06 2.06 2.06h6.12c1.14 0 2.07-.92 2.07-2.06v-5.69h2.16v5.69c0 1.14.92 2.06 2.06 2.06h6.12c1.14 0 2.06-.92 2.06-2.06v-5.69h2.16v5.69c0 1.14.93 2.06 2.07 2.06h6.12c1.14 0 2.06-.92 2.06-2.06v-5.69h2.46c4 0 7.26-3.26 7.26-7.26v-2.46h5.69c1.14 0 2.06-.92 2.06-2.06v-6.12c0-1.14-.92-2.07-2.06-2.07h-5.69v-2.16h5.69c1.14 0 2.06-.92 2.06-2.06v-6.12c0-1.14-.92-2.06-2.06-2.06h-5.69v-2.16z"/><path id="qxelb" d="M1376.55 1942.55h-33.1v-33.1h33.1zm2.06-37.22h-37.22c-1.14 0-2.06.92-2.06 2.06v37.22c0 1.14.92 2.06 2.06 2.06h37.22c1.14 0 2.06-.92 2.06-2.06v-37.22c0-1.14-.92-2.06-2.06-2.06z"/></defs><g><g transform="translate(-1325 -1891)"><g><use xlink:href="#qxela"/></g><g><use xlink:href="#qxelb"/></g></g></g></svg>