<svg xmlns="http://www.w3.org/2000/svg" xmlns:xlink="http://www.w3.org/1999/xlink" width="40" height="40" viewBox="0 0 40 40"><defs><path id="1jo4a" d="M1007.53 3534.53a17.61 17.61 0 0 1-12.53 5.2 17.75 17.75 0 0 1 0-35.45 17.75 17.75 0 0 1 12.53 30.26zm1.61-26.67A19.86 19.86 0 0 0 995 3502a19.86 19.86 0 0 0-14.14 5.86A19.86 19.86 0 0 0 975 3522c0 5.35 2.08 10.36 5.86 14.14A19.86 19.86 0 0 0 995 3542c5.35 0 10.36-2.08 14.14-5.86A19.86 19.86 0 0 0 1015 3522c0-5.35-2.08-10.36-5.86-14.14z"/><path id="1jo4b" d="M1003.81 3513.19a1.13 1.13 0 0 0-1.6 0l-7.21 7.2-7.2-7.2a1.13 1.13 0 0 0-1.61 0 1.13 1.13 0 0 0 0 1.6l7.2 7.21-7.2 7.2a1.14 1.14 0 1 0 .8 1.94c.28.01.58-.1.8-.33l7.2-7.2 7.2 7.2c.23.22.52.34.8.34.3 0 .59-.11.8-.34.45-.44.45-1.16 0-1.6l-7.18-7.21 7.2-7.2c.45-.45.45-1.17 0-1.61z"/></defs><g><g transform="translate(-975 -3502)"><g><g><use xlink:href="#1jo4a"/></g><g><use xlink:href="#1jo4b"/></g></g></g></g></svg>