<svg xmlns="http://www.w3.org/2000/svg" xmlns:xlink="http://www.w3.org/1999/xlink" width="31" height="30" viewBox="0 0 31 30"><defs><path id="pdjaa" d="M396.3 434.27a.88.88 0 1 1 0 1.76.88.88 0 0 1 0-1.76zm0 3.52a2.64 2.64 0 1 0 0-5.28 2.64 2.64 0 0 0 0 5.28z"/><path id="pdjab" d="M396.3 430.76a4.4 4.4 0 0 1 3.52 7.02l-3.52 4.7-3.52-4.7a4.4 4.4 0 0 1 3.52-7.02zm0 14.65l4.93-6.57a6.14 6.14 0 1 0-11.08-3.69 6.1 6.1 0 0 0 1.23 3.69z"/><path id="pdjac" d="M395.42 425.52v1.72h1.76v-1.72c5.6.43 10.09 4.91 10.52 10.51h-1.73v1.76h1.73a11.45 11.45 0 0 1-10.52 10.51v-1.72h-1.76v1.72a11.44 11.44 0 0 1-10.51-10.51h1.72v-1.76h-1.72a11.44 11.44 0 0 1 10.51-10.51zm0 24.54v1.85h1.76v-1.85a13.18 13.18 0 0 0 12.28-12.27h1.84v-1.76h-1.84a13.18 13.18 0 0 0-12.28-12.27v-1.85h-1.76v1.85a13.18 13.18 0 0 0-12.27 12.27h-1.85v1.76h1.85a13.18 13.18 0 0 0 12.27 12.27z"/></defs><g><g transform="translate(-381 -422)"><g><use xlink:href="#pdjaa"/></g><g><use xlink:href="#pdjab"/></g><g><use xlink:href="#pdjac"/></g></g></g></svg>