<svg xmlns="http://www.w3.org/2000/svg" xmlns:xlink="http://www.w3.org/1999/xlink" width="16" height="20" viewBox="0 0 16 20"><defs><path id="llaqa" d="M711.2 55.43a5 5 0 0 1-.91 1.51L705 63.23l-5.28-6.28a5 5 0 0 1-.92-1.51 6.74 6.74 0 0 1 .77-6.16A6.49 6.49 0 0 1 705 46.4c2.2 0 4.18 1.05 5.43 2.87a6.75 6.75 0 0 1 .77 6.16zm.36-6.95A7.85 7.85 0 0 0 705 45a7.85 7.85 0 0 0-6.56 3.48 8.15 8.15 0 0 0-.93 7.44c.24.67.63 1.32 1.16 1.93l5.8 6.9a.69.69 0 0 0 1.06 0l5.8-6.9c.53-.6.92-1.26 1.16-1.93a8.16 8.16 0 0 0-.93-7.44z"/><path id="llaqb" d="M705 55.58a2.5 2.5 0 0 1-2.49-2.51 2.5 2.5 0 0 1 2.49-2.52 2.5 2.5 0 0 1 2.49 2.52 2.5 2.5 0 0 1-2.49 2.51zm0-6.43a3.9 3.9 0 0 0-3.87 3.92 3.9 3.9 0 0 0 3.87 3.91 3.9 3.9 0 0 0 3.87-3.91 3.9 3.9 0 0 0-3.87-3.92z"/></defs><g><g transform="translate(-697 -45)"><g><g><g><use xlink:href="#llaqa"/></g></g></g><g><g><g><use xlink:href="#llaqb"/></g></g></g></g></g></svg>