<svg xmlns="http://www.w3.org/2000/svg" xmlns:xlink="http://www.w3.org/1999/xlink" width="31" height="28" viewBox="0 0 31 28"><defs><path id="f54sa" d="M400.41 614.4l9.28-6.45.01 13.65zm-16.13 8l11.97-9.29 11.93 9.26zm-1.5-14.42l9.3 6.43-9.28 7.2zm3.11-3.21v3.5l-2.53-1.75zm1.54-4.26h17.63v8.78l-5.92 4.12-2.41-1.87-.01-.01a.77.77 0 0 0-.94 0l-2.43 1.9-5.92-4.1zm8.81-2.9l1.96 1.36h-3.92zm10.36 7.2l2.45 1.7-2.45 1.71zm4.62 1.7a.44.44 0 0 0-.03-.16.77.77 0 0 0-.3-.43l-4.3-2.98v-3.2a.77.77 0 0 0-.76-.77h-4.94l-4.2-2.92a.77.77 0 0 0-.88 0l-4.23 2.92h-4.92a.77.77 0 0 0-.77.77v3.16l-4.31 2.98a.77.77 0 0 0-.34.62v.02l.03 16.65a.77.77 0 0 0 .76.77l28.45-.04c.42 0 .76-.34.76-.77z"/><path id="f54sb" d="M401.44 603.58h-10.4a.77.77 0 0 0 0 1.54h10.4a.77.77 0 0 0 0-1.54z"/><path id="f54sc" d="M401.44 607.58h-10.4a.77.77 0 0 0 0 1.53h10.4a.77.77 0 0 0 0-1.53z"/></defs><g><g transform="translate(-381 -596)"><g><g><g><use xlink:href="#f54sa"/></g></g></g><g><g><g><use xlink:href="#f54sb"/></g></g></g><g><g><g><use xlink:href="#f54sc"/></g></g></g></g></g></svg>