<svg xmlns="http://www.w3.org/2000/svg" xmlns:xlink="http://www.w3.org/1999/xlink" width="13" height="20" viewBox="0 0 13 20"><defs><path id="8b6ya" d="M914.82 47.34h-10.64v-.58c0-.33.27-.59.6-.59h9.45c.32 0 .59.26.59.59zm0 12.97h-10.64v-11.8h10.64zm0 2.93c0 .33-.27.59-.6.59h-9.45a.59.59 0 0 1-.59-.59v-1.76h4.73v.59c0 .32.26.59.59.59.33 0 .6-.27.6-.59v-.59h4.72zm-.6-18.24h-9.45c-.97 0-1.77.79-1.77 1.76v16.48c0 .97.8 1.76 1.77 1.76h9.46c.97 0 1.77-.79 1.77-1.76V46.76c0-.97-.8-1.76-1.77-1.76z"/></defs><g><g transform="translate(-903 -45)"><g><g><use xlink:href="#8b6ya"/></g></g></g></g></svg>