<svg xmlns="http://www.w3.org/2000/svg" xmlns:xlink="http://www.w3.org/1999/xlink" width="66" height="66" viewBox="0 0 66 66"><defs><path id="ywe1a" d="M988.35 1944.43a5.8 5.8 0 0 1-7.92 2.12c-2.24-1.3-10.24-7.67-15.07-12.88a7.73 7.73 0 0 0 2.3-3.96c6.99 1.63 16.46 5.57 18.57 6.8a5.8 5.8 0 0 1 2.12 7.92zm-25.95-23.82a7.74 7.74 0 0 0-4.58 0c-2.12-6.99-3.5-17.54-3.5-19.94a5.8 5.8 0 0 1 11.6 0c0 2.4-1.4 12.96-3.52 19.94zm-2.29 11.25a3.87 3.87 0 1 1 .01-7.74 3.87 3.87 0 0 1 0 7.74zm-20.54 14.7a5.8 5.8 0 1 1-5.8-10.05c2.17-1.26 11.74-5.18 18.8-6.8a7.73 7.73 0 0 0 2.3 3.96c-5 5.37-13.2 11.67-15.3 12.88zm48.6-13.4c-2.72-1.57-13.19-5.89-20.67-7.45a7.74 7.74 0 0 0-1.72-2.97c1-3.02 1.85-6.78 2.51-10.36a17.46 17.46 0 0 1 8.62 10.79 1.93 1.93 0 1 0 3.73-1.02 21.34 21.34 0 0 0-11.68-13.75c.22-1.45.4-2.8.53-3.99a25.23 25.23 0 0 1 15.7 21.6 1.93 1.93 0 0 0 3.86-.26 29 29 0 0 0-19.28-25.37 9.68 9.68 0 0 0-19.32.29c0 3.09 1.57 14.72 4 22.07a7.73 7.73 0 0 0-1.73 2.97 82.14 82.14 0 0 0-10 2.91 17.3 17.3 0 0 1 5.04-12.87 1.93 1.93 0 1 0-2.74-2.72 21.16 21.16 0 0 0-6.08 17c-1.36.52-2.62 1.04-3.71 1.51a25.13 25.13 0 0 1 10.86-24.4 1.93 1.93 0 0 0-2.16-3.21 29 29 0 0 0-12.33 29.37 9.66 9.66 0 0 0 9.9 16.6c2.62-1.5 11.76-8.6 16.9-14.37 1.12.26 2.28.27 3.43 0a86.11 86.11 0 0 0 7.37 7.16 17.4 17.4 0 0 1-13.75 2.13 1.93 1.93 0 0 0-.99 3.74c6.01 1.59 12.56.48 17.8-3.28 1.13.93 2.2 1.77 3.15 2.49a25.14 25.14 0 0 1-26.57 2.8 1.93 1.93 0 0 0-1.7 3.48 29 29 0 0 0 31.6-4.01 9.66 9.66 0 0 0 9.42-16.88z"/></defs><g><g transform="translate(-927 -1891)"><g><g><use xlink:href="#ywe1a"/></g></g></g></g></svg>