<svg xmlns="http://www.w3.org/2000/svg" xmlns:xlink="http://www.w3.org/1999/xlink" width="31" height="30" viewBox="0 0 31 30"><defs><path id="j7i6a" d="M405.54 714.32a13.28 13.28 0 0 1-18.74-.08 13.22 13.22 0 0 1 0-18.66 13.28 13.28 0 0 1 18.74-.08 13.34 13.34 0 0 1 0 18.82zm-19.98-19.97a14.93 14.93 0 0 0 0 21.13 15.03 15.03 0 0 0 21.22.08 15.14 15.14 0 0 0 0-21.3 15.03 15.03 0 0 0-21.22.09z"/><path id="j7i6b" d="M397.1 703.95v-4.1a.88.88 0 1 0-1.77 0v4.98c0 .48.4.88.88.88h4.97a.88.88 0 0 0 0-1.76z"/><path id="j7i6c" d="M405.82 704.03h-.74a.88.88 0 1 0 0 1.76h.74a9.76 9.76 0 0 1-2.18 5.39l-.6-.6a.88.88 0 0 0-1.23 1.25l.59.6a9.56 9.56 0 0 1-5.3 2.17v-.82a.88.88 0 1 0-1.77 0v.81a9.8 9.8 0 0 1-5.39-2.25l.6-.6a.88.88 0 0 0-1.25-1.24l-.59.6a9.62 9.62 0 0 1-2.2-5.31h.84a.88.88 0 0 0 0-1.76h-.83c.17-1.9.9-3.76 2.2-5.3l.58.59a.88.88 0 0 0 1.25-1.25l-.6-.59a9.8 9.8 0 0 1 5.4-2.25v.8a.88.88 0 0 0 1.75 0v-.8c1.9.16 3.76.88 5.3 2.17l-.58.6a.88.88 0 0 0 1.24 1.23l.6-.59a9.76 9.76 0 0 1 2.17 5.4zm-17.77-7.2a11.44 11.44 0 0 0 0 16.16 11.54 11.54 0 0 0 16.24.08 11.63 11.63 0 0 0 0-16.32 11.54 11.54 0 0 0-16.24.08z"/></defs><g><g transform="translate(-381 -690)"><g><g><g><use xlink:href="#j7i6a"/></g></g></g><g><g><g><use xlink:href="#j7i6b"/></g></g></g><g><g><g><use xlink:href="#j7i6c"/></g></g></g></g></g></svg>