<svg xmlns="http://www.w3.org/2000/svg" xmlns:xlink="http://www.w3.org/1999/xlink" width="60" height="60" viewBox="0 0 60 60"><defs><path id="me2na" d="M1336.8 947.38a1.76 1.76 0 1 1 3.5 0 1.76 1.76 0 0 1-3.5 0z"/><path id="me2nb" d="M1384.32 950.32a7.4 7.4 0 0 1-11.19-.85l-7.8-9.54 7.17-8.6 11.04 7.86a7.4 7.4 0 0 1 .78 11.13zm-23.6-16.02l6.1-7.02 2.8 2-6.56 7.88zm-18.96 16.5l-.01.02a4.71 4.71 0 0 1-7.22-.03c-1.63-1.94-1.23-5.08.87-6.85v-.01c15.62-13.45 25.11-21.65 28.97-24.98a5.24 5.24 0 0 0 1.84-4.02v-6.86c0-.47.2-.91.54-1.24l5.76-5.77a5.28 5.28 0 0 1 6-1.03l-3.51 3.52a5.28 5.28 0 0 0 7.46 7.46l3.51-3.52c.94 1.96.6 4.38-1.03 6l-5.76 5.77c-.33.33-.77.54-1.24.54h-6.86c-1.55 0-3.01.65-4.02 1.83zm3.79-36.76c-.2-.2-.43-.34-.69-.43l-6.77-2.26-4.19-8.28 3.17-3.17 8.28 4.2 2.26 6.76c.09.26.23.5.43.7l9.04 9.03-2.67 2.3zm40.09 22.33l-.04-.03-16.47-11.73.6-.68v-.02c.34-.4.83-.62 1.35-.62h6.86c1.4 0 2.73-.55 3.73-1.55l5.76-5.76a8.8 8.8 0 0 0 0-12.43 1.76 1.76 0 0 0-2.49 0l-4.97 4.97a1.76 1.76 0 0 1-2.48-2.49l4.97-4.97c.68-.68.68-1.8 0-2.48a8.78 8.78 0 0 0-12.43 0l-5.77 5.76c-1 1-1.56 2.32-1.56 3.73v6.86c0 .52-.2 1-.6 1.34l-.02.01-2.33 2.01-8.94-8.93-2.35-7.07c-.15-.44-.46-.8-.87-1l-10.07-5.1a1.76 1.76 0 0 0-2.03.33l-4.97 4.97a1.76 1.76 0 0 0-.33 2.04l5.09 10.06c.2.41.57.72 1.01.87l7.07 2.36 8.38 8.38-18.62 16.06a8.8 8.8 0 0 0-3.05 5.6 7.93 7.93 0 0 0 1.76 6.19 8.23 8.23 0 0 0 12.6.05l13.96-16.1 12 14.67a10.9 10.9 0 1 0 15.25-15.3z"/></defs><g><g transform="translate(-1330 -896)"><g><g><g><use xlink:href="#me2na"/></g></g></g><g><g><g><use xlink:href="#me2nb"/></g></g></g></g></g></svg>