<svg xmlns="http://www.w3.org/2000/svg" xmlns:xlink="http://www.w3.org/1999/xlink" width="40" height="40" viewBox="0 0 40 40"><defs><path id="93t9a" d="M395 3539.66a17.68 17.68 0 0 1-17.66-17.66c0-9.74 7.92-17.66 17.66-17.66s17.66 7.92 17.66 17.66-7.92 17.66-17.66 17.66zm14.14-31.8A19.87 19.87 0 0 0 395 3502a19.87 19.87 0 0 0-14.14 5.86A19.87 19.87 0 0 0 375 3522c0 5.34 2.08 10.36 5.86 14.14A19.87 19.87 0 0 0 395 3542c5.34 0 10.36-2.08 14.14-5.86A19.87 19.87 0 0 0 415 3522c0-5.34-2.08-10.36-5.86-14.14z"/><path id="93t9b" d="M404.56 3515.58a1.17 1.17 0 0 0-1.66 0l-10.35 10.35-5.45-5.45a1.17 1.17 0 0 0-1.66 1.66l6.28 6.28a1.17 1.17 0 0 0 1.66 0l11.18-11.18c.45-.46.45-1.2 0-1.66z"/></defs><g><g transform="translate(-375 -3502)"><g><g><g><use xlink:href="#93t9a"/></g></g></g><g><g><g><use xlink:href="#93t9b"/></g></g></g></g></g></svg>