<svg xmlns="http://www.w3.org/2000/svg" xmlns:xlink="http://www.w3.org/1999/xlink" width="90" height="37" viewBox="0 0 90 37"><defs><path id="pu78a" d="M543 2435.35a43.97 43.97 0 0 0-8.17-5.32.24.24 0 0 1-.15-.22v-5.61a2.62 2.62 0 0 0 1.16-2.2v-5.83c0-2.9-2.32-5.26-5.18-5.26h-1.25a5.22 5.22 0 0 0-5.18 5.26v5.84c0 .91.46 1.72 1.16 2.19v5.61c0 .04 0 .08-.02.1 1.09.76 2.23 1.6 3.34 2.52a5.7 5.7 0 0 1 2.04 4.42v4.7H544v-4c0-.87-.37-1.68-1-2.2z"/><path id="pu78b" d="M527.23 2434.26a52.92 52.92 0 0 0-9.6-6.25c-.11-.05-.17-.15-.17-.28v-6.6a3.13 3.13 0 0 0 1.37-2.57v-6.84c0-3.4-2.73-6.18-6.08-6.18h-1.46a6.14 6.14 0 0 0-6.08 6.18v6.84c0 1.07.53 2.03 1.36 2.57v6.6c0 .12-.07.23-.16.28-.93.45-5.42 2.77-9.6 6.25a3.35 3.35 0 0 0-1.2 2.57v4.7h32.8v-4.7c0-1-.42-1.95-1.18-2.57z"/><path id="pu78c" d="M498.61 2429.8v-5.62a2.62 2.62 0 0 0 1.16-2.2v-5.83c0-2.9-2.32-5.26-5.18-5.26h-1.25a5.22 5.22 0 0 0-5.18 5.26v5.84c0 .92.46 1.72 1.16 2.19v5.61c0 .1-.05.19-.15.23-.77.39-4.6 2.35-8.16 5.31a2.86 2.86 0 0 0-1.02 2.19v3.98h13.24v-4.7a5.7 5.7 0 0 1 2.04-4.4c1.11-.94 2.25-1.79 3.34-2.53.02-.02 0-.06 0-.08z"/><path id="pu78d" d="M556.19 2436.56a36.98 36.98 0 0 0-6.54-4.26.2.2 0 0 1-.11-.19v-4.5c.55-.38.92-1.04.92-1.77v-4.67a4.19 4.19 0 0 0-4.15-4.21h-1a4.19 4.19 0 0 0-4.14 4.2v4.68c0 .73.37 1.37.92 1.76v3.99a49 49 0 0 1 2.41 1.85 5.32 5.32 0 0 1 1.9 4.08v3.98H557v-3.2c0-.65-.3-1.3-.81-1.74z"/><path id="pu78e" d="M481.91 2427.62c.55-.37.92-1.03.92-1.76v-4.68a4.19 4.19 0 0 0-4.14-4.2h-1a4.19 4.19 0 0 0-4.15 4.2v4.68c0 .73.37 1.37.92 1.76v4.51a.2.2 0 0 1-.1.19 36.3 36.3 0 0 0-6.55 4.26 2.26 2.26 0 0 0-.81 1.74v3.2h10.6v-3.98c0-1.6.68-3.07 1.9-4.08.79-.67 1.62-1.3 2.41-1.85z"/></defs><g><g transform="translate(-467 -2405)"><g><g><g><use xlink:href="#pu78a"/></g></g><g><g><use xlink:href="#pu78b"/></g></g><g><g><use xlink:href="#pu78c"/></g></g><g><g><use xlink:href="#pu78d"/></g></g><g><g><use xlink:href="#pu78e"/></g></g></g></g></g></svg>