<svg xmlns="http://www.w3.org/2000/svg" xmlns:xlink="http://www.w3.org/1999/xlink" width="70" height="70" viewBox="0 0 70 70"><defs><path id="7zkta" d="M960.14 956.93a31.12 31.12 0 0 1-31.07-31.07c0-16.96 13.95-30.79 31.07-30.79a30.83 30.83 0 0 1 30.79 30.78c0 17.11-13.83 31.08-30.8 31.08zm0-65.93C941 891 925 906.45 925 925.86c0 19.23 15.85 35.14 35.14 35.14 19.43 0 34.86-16.03 34.86-35.14A34.84 34.84 0 0 0 960.14 891z"/><path id="7zktb" d="M974.5 937.6l-5.89-5.9c.76-1.16 1.3-2.45 1.57-3.8h8.3a18.79 18.79 0 0 1-3.97 9.7zm-12.31-1.43a9.94 9.94 0 0 0 3.55-1.53l5.88 5.88a18.23 18.23 0 0 1-9.43 3.96zm-8.5-10.3c0-3.34 2.96-6.19 6.45-6.19 1.7 0 3.23.72 4.34 1.83a6.13 6.13 0 0 1 1.84 4.34c0 3.48-2.85 6.47-6.18 6.47a6.73 6.73 0 0 1-6.46-6.46zm4.4 18.6a18.68 18.68 0 0 1-9.6-4.06l5.85-5.85c1.15.78 2.42 1.33 3.75 1.61zm-16.57-16.56h8.3c.3 1.33.84 2.6 1.62 3.75l-5.85 5.85a18.67 18.67 0 0 1-4.07-9.6zm3.96-13.53zm5.88 5.88a9.94 9.94 0 0 0-1.53 3.55h-8.3c.4-3.54 1.81-6.78 3.95-9.43zm6.73-4.44c-1.35.27-2.65.8-3.8 1.57l-5.9-5.9a18.79 18.79 0 0 1 9.7-3.97zm4.1-8.3c3.55.4 6.8 1.8 9.46 3.93l-5.86 5.86a10.2 10.2 0 0 0-3.6-1.5zm8 16.3a10.2 10.2 0 0 0-1.5-3.6l5.86-5.87a18.37 18.37 0 0 1 3.93 9.46zm-10.05-20.52c-12.42 0-22.84 10.08-22.84 22.56a23.02 23.02 0 0 0 22.84 22.84c12.5 0 22.56-10.43 22.56-22.84a22.58 22.58 0 0 0-22.56-22.56z"/><path id="7zktc" d="M960.14 921.76a4.1 4.1 0 1 0 0 8.21 4.1 4.1 0 0 0 0-8.2z"/></defs><g><g transform="translate(-925 -891)"><g><g><g><use xlink:href="#7zkta"/></g></g></g><g><g><g><use xlink:href="#7zktb"/></g></g></g><g><g><g><use xlink:href="#7zktc"/></g></g></g></g></g></svg>