<svg xmlns="http://www.w3.org/2000/svg" xmlns:xlink="http://www.w3.org/1999/xlink" width="256" height="46" viewBox="0 0 256 46"><defs><path id="f1tga" d="M424.13 35.8l22 21.93a5.74 5.74 0 0 0-.23-7.85l-13.89-13.85a5.79 5.79 0 0 0-7.88-.23zm22.08 16.52a1.2 1.2 0 0 1 0 1.7c-.47.48-1.24.48-1.71 0a1.2 1.2 0 0 1 0-1.7 1.21 1.21 0 0 1 1.71 0zm-16.6-16.56a1.2 1.2 0 0 1 0 1.71c-.48.47-1.25.47-1.72 0a1.2 1.2 0 0 1 0-1.7 1.21 1.21 0 0 1 1.72 0zm-9.41 2.22l23.74 23.67a1.2 1.2 0 1 1-1.72 1.7L418.48 39.7a1.2 1.2 0 1 1 1.72-1.7zm1.25 15.43c-.47.47-1.25.47-1.72 0l-5.38-5.36a1.2 1.2 0 1 1 1.71-1.71l5.39 5.37a1.2 1.2 0 0 1 0 1.7zm-.39 5.59a1.22 1.22 0 0 1-1.78-.07 1.22 1.22 0 0 1-.07-.07l-6.18-6.16a1.2 1.2 0 1 1 1.72-1.7l5.46 5.44 5.32-5.3a1.2 1.2 0 1 1 1.71 1.7L421.06 59zm9.1 1.4l5.4 5.37a1.2 1.2 0 1 1-1.72 1.7l-5.39-5.36a1.2 1.2 0 1 1 1.72-1.71zm-7.3.38l6.17-6.15a1.2 1.2 0 1 1 1.71 1.7l-5.32 5.3 5.46 5.45a1.2 1.2 0 1 1-1.71 1.7l-6.18-6.15a1.26 1.26 0 0 1-.07-.07 1.2 1.2 0 0 1-.07-1.77zm10.44-3.5l6.79 6.77a1.2 1.2 0 1 1-1.72 1.7L431.58 59a1.2 1.2 0 1 1 1.72-1.7zm-8.72-6.98c-.47.46-1.25.46-1.72 0l-6.79-6.77a1.2 1.2 0 1 1 1.72-1.71l6.79 6.77a1.2 1.2 0 0 1 0 1.7zm-45.72 6.45l22-21.94a5.79 5.79 0 0 0-7.87.24l-13.9 13.84a5.74 5.74 0 0 0-.23 7.86zm16.57-22.01a1.21 1.21 0 0 1 1.72 0 1.2 1.2 0 0 1 0 1.7c-.48.48-1.24.48-1.72 0a1.2 1.2 0 0 1 0-1.7zm-16.6 16.55a1.21 1.21 0 0 1 1.7 0 1.2 1.2 0 0 1 0 1.71 1.2 1.2 0 0 1-1.71-1.7zm2.22 9.38l23.74-23.66a1.2 1.2 0 1 1 1.71 1.7l-23.73 23.67c-.47.47-1.25.47-1.72 0a1.2 1.2 0 0 1 0-1.71zm13.77-1.25a1.2 1.2 0 1 1 1.71 1.7l-5.38 5.38a1.2 1.2 0 0 1-1.71-1.7l5.38-5.38zm7.32.39a1.2 1.2 0 0 1-.08 1.77l-.06.07-6.18 6.16a1.2 1.2 0 0 1-1.71-1.7l5.45-5.45-5.32-5.3a1.2 1.2 0 1 1 1.72-1.71l6.18 6.16zm1.4-9.08l5.38-5.37a1.2 1.2 0 1 1 1.71 1.7l-5.37 5.38c-.48.47-1.25.47-1.72 0a1.2 1.2 0 0 1 0-1.71zm.39 7.3l-6.18-6.16a1.2 1.2 0 1 1 1.71-1.71l5.32 5.3 5.46-5.44a1.2 1.2 0 1 1 1.71 1.7l-6.17 6.17-.07.06-.07.07c-.47.47-1.24.47-1.71 0zM400.4 47.6l6.8-6.77a1.2 1.2 0 1 1 1.71 1.7l-6.8 6.78c-.47.47-1.24.47-1.7 0a1.2 1.2 0 0 1 0-1.7zm-8.72 8.7a1.2 1.2 0 1 1 1.71 1.7l-6.78 6.77c-.48.47-1.25.47-1.72 0a1.2 1.2 0 0 1 0-1.7l6.79-6.78zm22.1 6.95a5.75 5.75 0 1 0-3.52 10.99c1.98.59 4.2.1 5.77-1.45a5.75 5.75 0 0 0-2.25-9.54zm-4.41 2.9a3.64 3.64 0 0 1 3.76-.86 3.62 3.62 0 1 1-2.22 6.9 3.62 3.62 0 0 1-1.54-6.04zm.14 10.38a8.18 8.18 0 0 1-5.76-8.4h-2.67l-1.1 1.1a.9.9 0 1 1-1.29-1.28l12.56-12.52a.91.91 0 0 1 1.15-.1.9.9 0 0 1 .48.24l12.55 12.51a.9.9 0 1 1-1.29 1.28l-1.17-1.17h-2.68a8.23 8.23 0 0 1-10.78 8.34zm1.85-15.98a8.3 8.3 0 0 1 1.33.02v-2.63l-.7-.69-.63.64zm-33.99-13.38l13.9-13.84a8.21 8.21 0 0 1 11.55 0l1.47 1.47-25.44 25.36-1.48-1.47a8.15 8.15 0 0 1 0-11.52zm56.35-12.85l13.89 13.84a8.15 8.15 0 0 1 0 11.52l-1.48 1.47-25.44-25.37 1.47-1.46a8.21 8.21 0 0 1 11.56 0z"/></defs><g><g transform="translate(-375 -31)"/><g opacity=".64" transform="translate(-375 -31)"/><g transform="translate(-375 -31)"><use fill="#ff4600" xlink:href="#f1tga"/></g></g></svg>