<svg xmlns="http://www.w3.org/2000/svg" viewBox="0 0 249 52">
  <defs>
    <style>
      .cls-1, .cls-2 {
        fill: #fff;
        letter-spacing: 0.2em;
      }

      .cls-1 {
        font-size: 24px;
        font-family: SegoeUI-Bold, Segoe UI;
        font-weight: 700;
      }

      .cls-2 {
        font-size: 15px;
        font-family: SegoeUI-Light, Segoe UI;
        font-weight: 300;
        opacity: 0.64;
      }

      .cls-3 {
        fill: #ff4600;
        fill-rule: evenodd;
      }
    </style>
  </defs>
  <g id="Group_80" data-name="Group 80" transform="translate(-375 -27)">
    <text id="КАЛИПСО" class="cls-1" transform="translate(474 53)"><tspan x="0" y="0">КАЛИПСО</tspan></text>
    <text id="автосервис" class="cls-2" transform="translate(474 75)"><tspan x="0" y="0">автосервис</tspan></text>
    <g id="Logo_Auto" transform="translate(374.917 30.958)">
      <path id="Path_23" data-name="Path 23" class="cls-3" d="M58.81,3.368,72.7,17.213a8.151,8.151,0,0,1,0,11.52L71.227,30.2,45.781,4.835l1.472-1.468a8.214,8.214,0,0,1,11.556,0ZM2.467,16.225,16.357,2.38a8.214,8.214,0,0,1,11.556,0l1.472,1.468L3.94,29.213,2.467,27.745a8.151,8.151,0,0,1,0-11.52ZM36.45,29.6a8.3,8.3,0,0,1,1.331.014V27l-.692-.69-.638.636V29.6ZM34.608,45.587a8.191,8.191,0,0,1-5.766-8.4H26.17l-1.091,1.087a.914.914,0,0,1-1.286,0h0a.907.907,0,0,1,0-1.281L36.341,24.487a.915.915,0,0,1,1.15-.111.9.9,0,0,1,.485.251L50.522,37.134a.907.907,0,0,1,0,1.281h0a.914.914,0,0,1-1.286,0L48.06,37.242H45.388a8.2,8.2,0,0,1-10.78,8.344ZM34.459,35.2a3.623,3.623,0,1,1,0,5.126A3.645,3.645,0,0,1,34.459,35.2Zm4.416-2.9a5.771,5.771,0,1,1-5.767,1.443A5.762,5.762,0,0,1,38.876,32.3Zm-22.1-6.954L9.985,32.114a1.209,1.209,0,0,0,0,1.709h0a1.218,1.218,0,0,0,1.714,0l6.789-6.768a1.209,1.209,0,0,0,0-1.709h0A1.218,1.218,0,0,0,16.774,25.347ZM25.5,16.653l6.789-6.768a1.218,1.218,0,0,1,1.714,0h0a1.209,1.209,0,0,1,0,1.709L27.21,18.362a1.218,1.218,0,0,1-1.714,0h0A1.209,1.209,0,0,1,25.5,16.653Zm3.514,10.412-6.177-6.157a1.209,1.209,0,0,1,0-1.709h0a1.218,1.218,0,0,1,1.714,0l5.32,5.3,5.457-5.44a1.218,1.218,0,0,1,1.714,0h0a1.209,1.209,0,0,1,0,1.709L30.86,26.928q-.035.034-.071.066c-.021.024-.043.048-.066.071h0a1.218,1.218,0,0,1-1.714,0Zm-.384-7.293,5.383-5.366a1.218,1.218,0,0,1,1.714,0h0a1.209,1.209,0,0,1,0,1.709l-5.383,5.366a1.218,1.218,0,0,1-1.714,0h0A1.209,1.209,0,0,1,28.625,19.772Zm-1.406,9.077-6.177-6.157a1.218,1.218,0,0,0-1.714,0h0a1.209,1.209,0,0,0,0,1.709l5.32,5.3-5.457,5.44a1.209,1.209,0,0,0,0,1.709h0a1.218,1.218,0,0,0,1.714,0l6.177-6.157q.035-.034.066-.071c.024-.021.048-.043.071-.066h0a1.209,1.209,0,0,0,0-1.709ZM19.9,28.466,14.52,33.832a1.209,1.209,0,0,0,0,1.709h0a1.218,1.218,0,0,0,1.714,0l5.383-5.366a1.209,1.209,0,0,0,0-1.709h0A1.218,1.218,0,0,0,19.9,28.466ZM6.136,29.712,29.875,6.049a1.218,1.218,0,0,1,1.714,0h0a1.209,1.209,0,0,1,0,1.709L7.85,31.421a1.218,1.218,0,0,1-1.714,0h0a1.209,1.209,0,0,1,0-1.709ZM3.908,20.334a1.21,1.21,0,1,1,0,1.709A1.215,1.215,0,0,1,3.908,20.334ZM20.516,3.779a1.21,1.21,0,1,1,0,1.709A1.215,1.215,0,0,1,20.516,3.779ZM3.947,25.788l22-21.934a5.786,5.786,0,0,0-7.88.233L4.181,17.934a5.741,5.741,0,0,0-.234,7.855Zm45.713-8.16-6.789-6.768a1.218,1.218,0,0,0-1.714,0h0a1.209,1.209,0,0,0,0,1.709l6.789,6.768a1.218,1.218,0,0,0,1.714,0h0A1.209,1.209,0,0,0,49.66,17.629Zm8.722,8.694,6.789,6.768a1.209,1.209,0,0,1,0,1.709h0a1.218,1.218,0,0,1-1.714,0l-6.789-6.768a1.209,1.209,0,0,1,0-1.709h0A1.218,1.218,0,0,1,58.382,26.323Zm-10.445,3.5,6.177-6.157a1.218,1.218,0,0,1,1.714,0h0a1.209,1.209,0,0,1,0,1.709l-5.32,5.3,5.457,5.44a1.209,1.209,0,0,1,0,1.709h0a1.218,1.218,0,0,1-1.714,0L48.074,31.67c-.023-.023-.045-.047-.066-.071s-.048-.043-.071-.066h0a1.209,1.209,0,0,1,0-1.709Zm7.316-.383,5.383,5.366a1.209,1.209,0,0,1,0,1.709h0a1.218,1.218,0,0,1-1.714,0l-5.383-5.366a1.209,1.209,0,0,1,0-1.709h0A1.218,1.218,0,0,1,55.252,29.442Zm-9.106-1.4,6.177-6.157a1.209,1.209,0,0,0,0-1.709h0a1.218,1.218,0,0,0-1.714,0l-5.32,5.3-5.457-5.44a1.218,1.218,0,0,0-1.714,0h0a1.209,1.209,0,0,0,0,1.709L44.3,27.9q.035.034.071.066c.021.024.043.048.066.071h0a1.218,1.218,0,0,0,1.714,0Zm.384-7.293-5.383-5.366a1.218,1.218,0,0,0-1.714,0h0a1.209,1.209,0,0,0,0,1.709l5.383,5.366a1.218,1.218,0,0,0,1.714,0h0A1.209,1.209,0,0,0,46.531,20.748ZM45.28,7.025,69.019,30.688a1.209,1.209,0,0,1,0,1.709h0a1.218,1.218,0,0,1-1.714,0L43.566,8.734a1.209,1.209,0,0,1,0-1.709h0a1.218,1.218,0,0,1,1.714,0ZM54.689,4.8a1.21,1.21,0,1,1-1.714,0A1.206,1.206,0,0,1,54.689,4.8ZM71.3,21.359a1.21,1.21,0,1,1-1.714,0A1.205,1.205,0,0,1,71.3,21.359ZM49.217,4.843l22,21.934a5.741,5.741,0,0,0-.234-7.854L57.1,5.076a5.786,5.786,0,0,0-7.88-.233Z" transform="translate(0 0)"/>
    </g>
  </g>
</svg>
